name processed_emg_signals
nRows=74
nColumns=7
 
endheader
time	RGLTMED	RRF	RADDLONG	RST	RTA	RGM
0.97	0.390985245406766	0.2024815187622499	0.2696765269537389	0.7744090984055227	0.0389539030666184	0.5410279546486885
0.971	0.3942128596739213	0.1997050375140192	0.2675510837355761	0.7679617533476152	0.038615136340497	0.53613900149796
0.972	0.3976204577116443	0.1970342634795315	0.2654772715291892	0.7614717265174289	0.0383063147931674	0.5311822918123811
0.973	0.4012053143841873	0.1944677713620373	0.2634545842573157	0.754940386349625	0.0380261817401375	0.5261631211877521
0.974	0.4049645854769994	0.1920040985811109	0.2614824813493532	0.7483690519975257	0.037773507123382	0.5210868007321159
0.975	0.4088953105888035	0.1896417483981229	0.2595603895513027	0.7417589949869808	0.0375470883929058	0.515958650480633
0.976	0.412994416054974	0.1873791929998111	0.2576877047346139	0.7351114410537547	0.0373457513350923	0.5107839928796987
0.977	0.4172587178985593	0.1852148765353299	0.2558637937007816	0.728427572165755	0.0371683508478471	0.5055681463516769
0.978	0.421684924804669	0.1831472181018799	0.2540879959784445	0.7217085287290282	0.0370137716625859	0.5003164189505498
0.979	0.4262696411131876	0.1811746146747889	0.2523596256092494	0.7149554119740588	0.0368809290132521	0.4950341021179104
0.98	0.4310093698239363	0.1792954439779414	0.2506779729188292	0.7081692865166589	0.0367687692525987	0.4897264645479495
0.981	0.4359005156079651	0.177508067291103	0.2490423062686287	0.7013511830858163	0.0366762704160861	0.484398746169205
0.982	0.4409393878183194	0.1758108321911182	0.2474518737849286	0.6945021014090395	0.0366024427338144	0.4790561522500663
0.983	0.4461222034937615	0.1742020752239036	0.2459059050611168	0.6876230132442832	0.0365463290909553	0.4737038476347252
0.984	0.4514450903498237	0.1726801245040548	0.2444036128294061	0.6807148655460297	0.0365070054372336	0.4683469511159145
0.985	0.456904089752993	0.1712433022391392	0.2429441945985904	0.6737785837517518	0.0364835811460118	0.46299052995085
0.986	0.4624951596759113	0.1698899271750736	0.2415268342539463	0.666815075173792	0.0364751993235629	0.4576395945263465
0.987	0.4682141776331378	0.1686183169594563	0.2401507036156915	0.6598252324807801	0.0364810370691036	0.4522990931787041
0.988	0.4740569435980939	0.1674267904188988	0.2388149639526516	0.6528099372516545	0.0365003056860873	0.4469739071733629
0.989	0.4800191829024787	0.1663136697464653	0.2375187674485332	0.6457700635843486	0.0365322508453136	0.4416688458488747
0.99	0.4860965491193408	0.1652772825947507	0.236261258619199	0.6387064817396453	0.0365761527003027	0.4363886419292838
0.991	0.4922846269306766	0.1643159640700408	0.2350415756808543	0.6316200617992855	0.0366313259554894	0.4311379470084531
0.992	0.498578934979929	0.1634280586232785	0.2338588518699395	0.6245116773158815	0.03669711988768	0.4259213272091872
0.993	0.5049749287089569	0.162611921833783	0.2327122167165777	0.6173822089309784	0.0367729183213025	0.4207432590191306
0.994	0.5114680031786295	0.1618659220826471	0.2316007972736349	0.610232547936411	0.0368581395578438	0.4156081253046461
0.995	0.5180534958721116	0.1611884421140101	0.2305237193036609	0.6030635997533996	0.0369522362599032	0.4105202115032078
0.996	0.524726689480236	0.1605778804828993	0.229480108426189	0.5958762873034742	0.0370546952902315	0.4054837019944834
0.997	0.5314828146685252	0.1600326528896198	0.228469091227934	0.5886715542459946	0.0371650375061695	0.4005026766500153
0.998	0.5383170528257436	0.1595511934011936	0.2274897963385918	0.5814503680582604	0.0372828175099153	0.3955811075614588
0.999	0.5452245387943907	0.1591319555609339	0.226541355474733	0.5742137229363741	0.0374076233550603	0.3907228559473717
1.0	0.5522003635844774	0.1587734133880816	0.2256229044543472	0.5669626424973144	0.0375390762098458	0.3859316692385161
1.0010000000000001	0.5592395770730942	0.1584740622694237	0.2247335841841066	0.5596981822651548	0.0376768299775791	0.3812111783417143
1.002	0.5663371906935224	0.1582324197455419	0.2238725416210205	0.5524214319270248	0.0378205708746359	0.3765648950819533
1.0030000000000001	0.5734881801187708	0.1580470261941123	0.2230389307097243	0.5451335173476208	0.0379700169666076	0.3719962098222114
1.004	0.5806874879450644	0.15791644541297	0.2222319132967715	0.5378356023343694	0.0381249176632825	0.3675083892599624
1.0050000000000001	0.587930026380452	0.1578392651057245	0.2214506600221988	0.5305288901483536	0.0382850531734453	0.3631045743989303
1.006	0.595210679942961	0.157814097272702	0.2206943511890253	0.523214624758764	0.0384502339207688	0.3587877786944738
1.0070000000000001	0.6025243081722164	0.1578395785097455	0.2199621776103993	0.5158940918410138	0.0386202999223815	0.3545608863712158
1.008	0.6098657483584163	0.1579143702181948	0.2192533414344404	0.5085686195207608	0.0387951201319519	0.3504266509119527
1.0090000000000001	0.617229818293428	0.1580371587287903	0.2185670569463674	0.5012395788677542	0.0389745917492903	0.3463876937175696
1.01	0.624611319049675	0.1582066553428778	0.2179025513476162	0.4939083841452839	0.0391586394986473	0.3424465029380928
1.0110000000000001	0.632005037793554	0.1584215962934982	0.2172590655114628	0.4865764928229286	0.0393472148779015	0.3386054324752466
1.012	0.6394057506403273	0.1586807426296292	0.2166358547143279	0.4792454053619248	0.0395402953809018	0.334866701156738
1.0130000000000001	0.6468082255569585	0.1589828800260583	0.2160321893417553	0.4719166647839055	0.0397378836951482	0.3312323920820634
1.014	0.6542072253182604	0.1593268185222175	0.2154473555679093	0.4645918560347274	0.0399400068769443	0.3277044521390949
1.0150000000000001	0.6615975105206899	0.1597113921928452	0.2148806560067554	0.4572726051556081	0.0401467155061084	0.3242846916900102
1.016	0.6689738426575511	0.1601354587537092	0.2143314103333954	0.4499605782739188	0.0403580828222192	0.3209747844245363
1.0170000000000001	0.6763309872593204	0.1605978991055338	0.2137989558729413	0.4426574804250349	0.0405742038443367	0.317776267377958
1.018	0.6836637171030588	0.1610976168195821	0.2132826481550357	0.4353650542159339	0.0407951944760275	0.3146905411110295
1.0190000000000001	0.6909668154953899	0.1616335375683546	0.2127818614317209	0.4280850783399338	0.0410211905974409	0.3117188700487674
1.02	0.698235079633996	0.1622046085051048	0.2122959891561329	0.4208193659513951	0.0412523471460902	0.3088623829751938
1.0210000000000001	0.7054633240524675	0.1628097975962421	0.2118244444202022	0.4135697629084195	0.041488837187933	0.3061220736811055
1.022	0.7126463841529272	0.1634480929106118	0.2113666603493495	0.4063381458913883	0.0417308509802271	0.303498801761877
1.0230000000000001	0.7197791198299186	0.1641185018696608	0.2109220904533798	0.3991264204051726	0.0419785950275986	0.3009932935621102
1.024	0.7268564191881057	0.1648200504624642	0.2104902089329288	0.3919365186731512	0.0422322911326022	0.2986061432636839
1.025	0.7338732023552421	0.1655517824293461	0.2100705109423325	0.3847703974318653	0.0424921754420606	0.296337814113319
1.026	0.7408244253908395	0.1663127584183794	0.2096625128094471	0.3776300356356884	0.0427584974902937	0.2941886397853505
1.027	0.7477050842901086	0.1671020551187647	0.20926575221413	0.370517432081287	0.0430315192403929	0.2921588258749614
1.028	0.754510219081685	0.1679187643757289	0.2088797883261341	0.3634346029615108	0.0433115141246538	0.2902484515170405
1.029	0.7612349180165916	0.1687619922914996	0.2085042019039016	0.3563835793579193	0.0435987660854031	0.2884574711262142
1.03	0.7678743218442573	0.1696308583166537	0.2081385953549342	0.3493664046803371	0.0438935686175668	0.2867857162542132
1.031	0.7744236281698916	0.1705244943364706	0.2077825927593912	0.3423851320610801	0.0441962238143802	0.2852328975616979
1.032	0.7808780958856097	0.1714420437562775	0.2074358398583279	0.3354418217106051	0.0445070414177351	0.283798606902611
1.033	0.7872330496661729	0.1723826605901081	0.2070980040086625	0.3285385382409591	0.0448263378745588	0.2824823195199114
1.034	0.7934838845187147	0.1733455085568526	0.2067687741066129	0.3216773479629776	0.0451544354006054	0.28128339635231
1.035	0.7996260703747187	0.1743297601877927	0.2064478604814076	0.3148603161632163	0.0454916610529033	0.2802010864522144
1.036	0.8056551567117242	0.175334595949518	0.2061349947602448	0.3080895043664559	0.0458383458120219	0.2792345295156152
1.037	0.811566777191472	0.176359203385666	0.2058299297054492	0.3013669675897584	0.0461948236752677	0.2783827585247215
1.038	0.8173566543007889	0.1774027762808508	0.2055324390247843	0.2946947515939969	0.0465614307617994	0.2776447025042407
1.039	0.8230206039810927	0.1784645138500607	0.2052423171555834	0.2880748901388187	0.0469385044306581	0.2770191893920088
1.04	0.8285545402319122	0.179543619956569	0.2049593790237512	0.2815094022468206	0.0473263824126425	0.276504949024442
1.041	0.8339544796729877	0.1806393023614456	0.2046834597787296	0.2750002894825386	0.0477254019569451	0.2761006162368358
1.042	0.8392165460484939	0.1817507720076164	0.2044144145053933	0.2685495332516621	0.0481358989934794	0.2758047340780161
1.043	0.8443369746562215	0.1828772423412264	0.2041521179138921	0.262159092125549	0.0485582073117672	0.2756157571382737
